<?xml version="1.0" standalone="no"?>
<!DOCTYPE svg PUBLIC "-//W3C//DTD SVG 20010904//EN"
 "http://www.w3.org/TR/2001/REC-SVG-20010904/DTD/svg10.dtd">
<svg version="1.0" xmlns="http://www.w3.org/2000/svg"
 width="260.000000pt" height="260.000000pt" viewBox="0 0 260.000000 260.000000"
 preserveAspectRatio="xMidYMid meet">
<metadata>
Created by potrace 1.14, written by Peter Selinger 2001-2017
</metadata>
<g transform="translate(0.000000,260.000000) scale(0.100000,-0.100000)"
fill="#000000" stroke="none">
<path d="M1287 2594 c-1 -1 -45 -4 -97 -7 -53 -3 -109 -11 -125 -18 -17 -6
-37 -13 -45 -14 -39 -5 -86 -18 -97 -27 -7 -6 -13 -8 -13 -4 0 4 -17 -2 -39
-13 -21 -11 -41 -18 -43 -15 -3 2 -11 -2 -18 -11 -7 -8 -21 -15 -32 -15 -10 0
-24 -5 -31 -10 -7 -6 -43 -31 -82 -57 -38 -25 -71 -50 -73 -54 -2 -5 -9 -9
-16 -9 -22 0 -196 -171 -237 -232 -21 -33 -39 -64 -39 -69 0 -5 -4 -9 -10 -9
-5 0 -10 -5 -10 -12 0 -6 -11 -25 -24 -42 -13 -17 -27 -47 -31 -66 -4 -19 -16
-52 -27 -73 -11 -22 -17 -45 -14 -52 2 -7 0 -17 -4 -21 -5 -5 -11 -25 -14 -44
-3 -19 -12 -68 -20 -109 -14 -73 -17 -366 -3 -388 3 -5 9 -23 11 -39 3 -16 8
-40 11 -54 3 -14 10 -50 16 -80 6 -30 14 -59 19 -65 7 -9 34 -97 31 -103 -1
-1 8 -12 19 -24 20 -22 24 -32 21 -56 -1 -7 5 -15 13 -18 8 -3 17 -15 20 -27
3 -13 13 -31 23 -42 10 -11 30 -39 45 -62 53 -81 245 -275 263 -265 3 1 15 -7
28 -19 25 -24 78 -54 90 -51 4 1 7 -2 7 -7 0 -5 10 -13 23 -17 12 -3 29 -12
38 -20 8 -7 24 -15 36 -17 12 -1 27 -7 35 -13 15 -11 160 -62 198 -69 58 -11
71 -14 80 -20 18 -11 140 -20 280 -20 153 0 226 7 287 29 22 8 43 13 46 10 2
-2 37 7 78 20 173 56 341 87 355 65 3 -5 12 -9 20 -9 20 0 97 -37 120 -58 28
-25 61 -25 68 0 3 12 2 26 -2 32 -12 19 -15 58 -16 173 -1 62 -3 113 -6 113
-3 0 -6 37 -8 83 -3 86 -9 192 -12 192 -1 0 -3 38 -6 84 -4 74 -7 87 -29 107
-14 13 -25 28 -25 34 0 5 -3 9 -7 8 -5 -2 -25 15 -46 36 l-39 38 -18 -29 c-9
-16 -34 -65 -55 -109 -21 -43 -45 -87 -53 -96 -8 -10 -12 -18 -9 -18 4 0 -4
-15 -17 -34 -12 -19 -29 -48 -36 -65 -7 -17 -19 -31 -26 -31 -8 0 -13 -3 -12
-7 8 -29 -140 -194 -179 -199 -9 -2 -19 -6 -22 -11 -3 -4 -13 -9 -21 -11 -8
-2 -22 -9 -30 -16 -22 -17 -65 -35 -116 -46 -93 -21 -214 -31 -214 -18 0 4
-11 3 -24 -2 -13 -5 -27 -6 -31 -2 -4 4 -11 8 -16 8 -5 1 -10 2 -11 4 -2 1
-16 4 -33 6 -16 3 -32 8 -35 12 -3 4 -25 20 -50 36 -41 26 -62 46 -120 112
-29 32 -90 156 -90 182 0 12 -3 22 -7 22 -7 0 -39 90 -47 135 -2 11 -9 31 -14
45 -5 14 -13 47 -16 73 -4 26 -11 59 -16 73 -22 56 -19 484 3 570 3 12 8 37
11 56 3 20 10 48 17 64 6 16 12 37 15 48 2 10 12 38 24 62 11 24 30 65 42 91
28 60 69 123 80 123 5 0 7 4 4 8 -15 24 185 172 238 177 12 1 35 8 51 15 42
19 239 21 281 4 17 -7 42 -15 55 -18 57 -10 130 -56 198 -123 25 -24 50 -47
55 -51 10 -6 37 -37 88 -100 20 -25 49 -79 47 -88 0 -4 6 -11 15 -16 9 -5 16
-13 16 -18 0 -40 183 -230 219 -227 27 2 27 5 16 112 -3 28 -7 100 -10 160 -2
61 -7 162 -10 225 -4 63 -8 151 -9 195 -1 44 -6 87 -11 96 -6 9 -29 28 -52 44
-24 15 -43 32 -43 36 0 23 -60 7 -95 -25 -34 -32 -41 -34 -89 -29 -28 2 -65 9
-82 14 -36 11 -68 18 -106 24 -15 2 -32 6 -38 10 -5 3 -24 8 -42 9 -18 2 -46
9 -63 16 -16 6 -97 13 -180 16 -82 3 -176 6 -208 7 -32 2 -59 2 -60 1z"/>
</g>
</svg>
