<?xml version="1.0" encoding="UTF-8"?><svg xmlns="http://www.w3.org/2000/svg" viewBox="0 0 33.93 33.93"><defs><style>.d{fill:#fff;}</style></defs><g id="a"/><g id="b"><g id="c"><g><path class="d" d="M16.96,33.93C7.61,33.93,0,26.32,0,16.96S7.61,0,16.96,0s16.96,7.61,16.96,16.96-7.61,16.97-16.96,16.97Zm0-30.95c-7.71,0-13.98,6.27-13.98,13.98s6.27,13.99,13.98,13.99,13.98-6.27,13.98-13.99S24.68,2.98,16.96,2.98Z"/><g><polygon class="d" points="11.08 16.96 11.08 8.81 18.15 12.89 25.21 16.96 18.15 21.04 11.08 25.12 11.08 16.96"/><path class="d" d="M11.08,25.21s-.03,0-.05-.01c-.03-.02-.05-.05-.05-.08V8.81s.02-.06,.05-.08c.03-.02,.07-.02,.09,0l14.13,8.16s.05,.05,.05,.08-.02,.06-.05,.08l-14.13,8.16s-.03,.01-.05,.01Zm.09-16.24v15.98l13.84-7.99-13.84-7.99Z"/></g></g></g></g></svg>