<?xml version="1.0" encoding="utf-8"?>
<!-- Generator: Adobe Illustrator 26.2.1, SVG Export Plug-In . SVG Version: 6.00 Build 0)  -->
<svg version="1.1" id="b6f73c8e-ef86-410d-bb09-0afa6dc71c11"
	 xmlns="http://www.w3.org/2000/svg" xmlns:xlink="http://www.w3.org/1999/xlink" x="0px" y="0px" viewBox="0 0 161.4 53.2"
	 style="enable-background:new 0 0 161.4 53.2;" xml:space="preserve">
<style type="text/css">
	.st0{fill:#FFFFFF;}
</style>
<g>
	<path class="st0" d="M11.4,43.9h3.8v0.3c-0.4,0-1.3,0-1.3,0.5c0.1,0.3,0.2,0.6,0.3,0.9l2.6,5.7l0,0l2.1-5c0.2-0.5,0.4-1,0.5-1.5
		c0-0.5-0.9-0.5-1.3-0.5V44h2.8v0.3c-0.8,0-1.2,1.1-1.4,1.7l-3.1,7.3h-0.2L13,46c-0.2-0.5-0.5-1.1-0.8-1.6c-0.1-0.2-0.4-0.2-0.7-0.2
		L11.4,43.9z"/>
	<path class="st0" d="M29,53v-0.3c0.8,0,1.3-0.1,1.3-0.7v-7c0-0.7-0.5-0.7-1.3-0.7V44h4.1v0.3c-0.8,0-1.4,0.1-1.4,0.7v7
		c0,0.7,0.5,0.7,1.4,0.7V53H29z"/>
	<path class="st0" d="M43.3,45.3V52c0,0.5,0.4,0.7,1.3,0.7V53h-3v-0.3c0.7-0.1,1.2-0.1,1.3-0.7l0,0v-7c-0.3-0.4-0.8-0.7-1.3-0.8V44
		h2.2l7.2,7.1V45c0-0.7-0.4-0.8-1.3-0.8v-0.3h3v0.3c-1,0.1-1.3,0.4-1.3,0.8v8.1h-0.2L43.3,45.3z"/>
	<path class="st0" d="M61.5,53v-0.3c0.7,0,1.1-0.1,1.1-0.7v-7c0-0.7-0.5-0.7-1.2-0.7V44h7.4l0.7,2.1l-0.3,0.1
		c-0.2-0.3-0.4-0.6-0.7-0.8c-0.5-0.7-1.4-1.1-2.3-1.1H64v4h0.8c1.5,0,2.1-0.2,2.4-1.7h0.2v3.8h-0.2c-0.1-1.5-0.8-1.8-2.2-1.8h-1V52
		c0,0.6,0.5,0.7,1,0.7h1.6c0.6,0,1.2-0.2,1.7-0.6c0.5-0.4,0.9-1,1.3-1.5l0.2,0.1L69.3,53H61.5z"/>
	<path class="st0" d="M78.3,43.9H82v0.3c-0.4,0-1.1,0-1.1,0.5c0.3,0.6,0.7,1.3,1.1,1.8l1.2,1.9c0.4-0.7,2.3-3,2.3-3.7
		c0-0.4-0.6-0.5-0.9-0.5v-0.3H87v0.3c-0.4,0.1-0.7,0.3-0.9,0.6l-2.7,4V52c0,0.7,0.5,0.7,1.1,0.7V53h-3.7v-0.3c0.6,0,1.1-0.1,1.1-0.7
		v-3.1l-2.3-3.7c-0.3-0.4-0.6-1.1-1.3-1.1C78.3,44.1,78.3,43.9,78.3,43.9z"/>
	<path class="st0" d="M93.4,53v-0.3c0.4,0,0.8-0.3,0.9-0.6l3-7L97,44.7c0.4-0.3,0.8-0.6,1.2-1l3.4,7.9c0.3,0.8,0.5,1.1,1.3,1.2V53
		h-3.8v-0.3c0.4,0,1.2,0,1.2-0.5c-0.3-0.9-0.6-1.8-1-2.7h-3.5c-0.1,0.5-1,2.3-1,2.6c0,0.5,0.8,0.5,1.2,0.6V53H93.4z M96,49.2h3.2
		l-1.7-3.7L96,49.2z"/>
	<path class="st0" d="M111.2,43.9c1.3,0,2.6,0,4,0c1.7,0,3.7,0.6,3.7,2.5c0,1.4-0.9,2-2.3,2.4c1,0.9,1.8,2,2.4,3.2
		c0.3,0.5,0.8,0.8,1.4,0.7V53H118c-0.8-1.3-1.6-2.5-2.6-3.6c-0.5-0.4-1.1-0.6-1.7-0.5V52c0,0.7,0.3,0.7,1.2,0.7V53h-3.8v-0.3
		c0.8,0,1.1-0.1,1.1-0.7v-7c0-0.7-0.3-0.7-1-0.7V43.9z M117.2,46.3c0-1.2-1-2.2-2.2-2.2c-0.1,0-0.2,0-0.3,0c-0.7,0-1.1,0.1-1.1,0.8
		v3.7c0.4,0,0.9,0,1.3-0.1C116.4,48.5,117.2,47.7,117.2,46.3z"/>
	<path class="st0" d="M128.7,43.9c1.5,0,3-0.1,4.5-0.1c4.5,0,6,2.2,6,4.7c0,3-2.1,4.6-6.3,4.6c-1.4,0-2.8-0.1-4.2-0.1v-0.3
		c0.7,0,1.1-0.1,1.1-0.7v-7.1c0-0.7-0.5-0.7-1.1-0.7V43.9z M131.3,51.8c0,1,0.7,1,1.8,1.1c2.8,0,4.5-1.7,4.5-4.2
		c0-2.9-1.6-4.5-4.8-4.5c-1.1,0-1.6,0.1-1.6,1v6.6H131.3z"/>
	<path class="st0" d="M147.9,50.2h0.3c0,1.5,1.2,2.7,2.7,2.7c0,0,0,0,0.1,0c1.9,0,2.3-1.2,2.3-1.9c0-1.3-1.3-1.5-2.4-1.8
		c-1.7-0.5-2.7-1-2.7-2.7s1.4-2.7,3.1-2.7c0.8,0,1.7,0.2,2.3,0.8l0.4-0.3h0.2V47H154c-0.2-0.8-0.5-1.5-0.9-2.1
		c-0.4-0.5-1-0.7-1.6-0.7c-1.1-0.1-2,0.7-2.1,1.7c0,0.1,0,0.2,0,0.3c0,1.1,1,1.4,2,1.7c1.6,0.4,3.2,1,3.2,2.8s-1.6,2.6-3.4,2.6
		c-0.9,0-1.7-0.2-2.5-0.7l-0.6,0.5h-0.2V50.2z"/>
	<path class="st0" d="M65,35l-3.4-2.6C61.6,32.3,51,8.1,51,8.1C51,8,50.9,8,50.8,8c0,0-0.1,0-0.1,0.1L40.2,32.5L36.4,35
		c-0.1,0-0.1,0.1-0.1,0.2c0,0.1,0.1,0.1,0.2,0.1h7.6c0.1,0,0.1,0,0.1-0.1s0-0.1-0.1-0.1c-0.1-0.1-2.2-1.9-2.5-2.2l2-4.7h10.7
		c0.9,2.1,1.9,4.4,2.2,5.2c-0.3,0.3-1.9,1.2-2.9,1.8c0,0-0.1,0.1-0.1,0.2c0,0.1,0.1,0.1,0.1,0.1h11.2c0.1,0,0.1,0,0.1-0.1
		C65,35.1,65,35,65,35z M41.9,34.4h-3.1l1.8-1.1L41.9,34.4z M44.2,26.8L49,15.9l4.9,10.9H44.2z M56.8,34.2c0.6-0.5,0.7-0.7,0.7-0.9
		v-0.1c-0.1-0.3-5.5-12.4-8.1-18.7l0.9-2.1l9,20.7l1.1,1.1C60.4,34.2,56.8,34.2,56.8,34.2z"/>
	<path class="st0" d="M84.9,9.9H76c-0.1,0-0.1,0-0.1,0.1s0,0.1,0.1,0.1l3.3,2.3l-5.6,9.9c-0.8-1.2-5.1-8.3-5.9-9.7l3.3-2.5V10
		c0-0.1-0.1-0.1-0.1-0.1H58c-0.1,0-0.1,0-0.1,0.1s0,0.1,0.1,0.1c1.4,0.7,3.8,1.9,3.9,2c0.3,0.4,7.8,12,8.2,12.6V33l-2.8,1.9L67.2,35
		c0,0.1,0.1,0.1,0.1,0.1h11.2c0.1,0,0.1,0,0.1-0.1c0,0,0-0.1,0-0.2c0,0-3.1-2.1-3.9-2.7v-8.4l6-11.1c0.3-0.3,0.5-0.6,0.8-0.8
		C82.6,11.1,83.8,10.5,84.9,9.9c0.2,0.1,0.2,0,0.2,0C85,9.9,84.9,9.9,84.9,9.9L84.9,9.9z M69.6,34.2l1.2-0.7v-9.1
		c0,0-8-12.7-8.2-12.9c-0.3-0.3-0.6-0.5-1-0.6h4.2l-1.1,0.9l7.7,12.6v8.7l1.2,1.1L69.6,34.2z M80.6,11c-0.3,0.2-0.6,0.5-0.8,0.8
		l-1.6-1.1h3C81,10.8,80.8,10.9,80.6,11z"/>
	<path class="st0" d="M119.4,35l-2.5-1.5l-4-22.4l2.3-1.1c0.1,0,0.1-0.1,0.1-0.1c0-0.1-0.1-0.1-0.1-0.1h-6.9c-0.1,0-0.1,0-0.1,0.1
		L101.6,27l-6-17.1c0-0.1-0.1-0.1-0.1-0.1h-8.7c-0.1,0-0.1,0-0.1,0.1V10c0.1,0.1,2.7,1.9,3.4,2.4l-3.3,20L82.5,35
		c-0.1,0-0.1,0.1,0,0.2l0.1,0.1h9l0.1-0.1c0-0.1,0-0.1-0.1-0.1l-3.8-2.3L91.1,13l0.1,0.1c0.5,1.3,7.8,22.1,7.9,22.3
		c0,0.1,0.1,0.1,0.1,0.1c0.1,0,0.1,0,0.1-0.1c0.1-0.2,6.7-17.4,8.9-22.8c0.7,4.4,3.5,20.5,3.5,20.6c-0.6,0.3-2.8,1.7-2.9,1.8
		c-0.1,0-0.1,0.1-0.1,0.2c0,0.1,0.1,0.1,0.1,0.1h10.5c0.1,0,0.1,0,0.2-0.1C119.5,35.1,119.5,35,119.4,35L119.4,35z M88.7,34.4h-3.5
		l1.8-1L88.7,34.4z M99.2,32.9c-2.4-6.8-7-20.1-7.2-20.4c0-0.1-0.2-0.2-2.1-1.4h3.3l6.8,19.6C99.6,31.8,99.3,32.6,99.2,32.9
		L99.2,32.9z M111.5,34.2c0.4-0.2,1.2-0.6,1.2-0.6l-3.9-22.8h2.4l-0.9,0.6l3.8,21.4c0.1,0.4,0.3,0.7,0.6,0.9l0.8,0.4L111.5,34.2z"/>
	<path class="st0" d="M143.1,9.8h-9.2c-0.1,0-0.1,0-0.1,0.1V10l4,3v15c0.1,3.4-2.1,5.5-5.9,6c-0.3,0-0.7,0.1-1,0.1
		c-1.5,0.1-2.9-0.5-3.8-1.6c-0.8-1.1-1.2-2.5-1.2-3.9c0,0-0.1-14.4-0.1-16.7c0.8-0.7,1.6-1.4,2.6-1.9c0.1,0,0.1-0.1,0.1-0.1
		c0-0.1-0.1-0.1-0.1-0.1h-11c-0.1,0-0.1,0-0.1,0.1V10c1.3,0.8,2.6,1.7,3.8,2.7c0,0.8,0.1,15.1,0.1,15.7c0,3.4,2.8,7.1,9,7.1
		c0.7,0,1.3,0,2-0.1c3.4-0.4,7.2-2.5,7.1-7.1V12.9l4-2.9V9.9C143.2,9.9,143.2,9.8,143.1,9.8z M121.9,28.5V12.4c0,0-1.3-1.1-2.2-1.8
		h4.8c-0.6,0.3-1,0.9-1.1,1.5c0,0.7,0,16.8,0,16.8c0.2,1.4-0.1,2.3,1.5,4.5C123.6,32.5,121.9,31.2,121.9,28.5z M138.3,12
		c-0.6-0.5-1.3-0.9-2-1.3h3.7C139.4,11.2,138.7,11.7,138.3,12z"/>
	<path class="st0" d="M161.4,26.3c-0.2-3.5-2.9-4.7-8.2-7.2l-0.8-0.4c-1.1-0.5-4.4-2.2-4.4-4.1c-0.1-2.3,1.6-4.2,3.9-4.4h0.1
		c1.4,0,3.2,0.8,3.8,1.9l2.4,5.4c0,0.1,0.1,0.1,0.1,0.1c0.1,0,0.1-0.1,0.1-0.1l0.3-8.4c0-0.1,0-0.1-0.1-0.1h-0.1l-2.3,2.2
		c-1.1-1.3-2.8-2-4.5-2c-5.4,0-7.4,3.7-7.4,7.1c0,4.1,2.3,5.4,7.7,7.6c1.7,0.7,5.2,2.1,5.5,4.5c0.3,1.6,0,3.2-1,4.5
		c-1.1,1.1-2.7,1.7-4.3,1.6c-4.1,0-6.1-3.5-8.4-9.9l0,0c0-0.1-0.1-0.1-0.1-0.1c-0.1,0-0.1,0.1-0.1,0.1v10.2c0,0.1,0,0.1,0.1,0.1h0.1
		l2-2c1.6,1.7,3.8,2.7,6.1,2.7h0.1c2.6,0.1,5.1-0.9,6.9-2.7C160.6,31.1,161.5,28.7,161.4,26.3z M157.6,10.6l-0.2,3.2
		c-0.3-0.7-0.6-1.4-1-2L157.6,10.6z M144.4,33.2c0-0.7,0-1.7,0-3.2c0.3,0.8,0.6,1.5,1.1,2.2C145.3,32.4,144.8,32.8,144.4,33.2z
		 M158.4,30.2c0.1-4.1-1.5-5.4-6.1-7.2c-5.1-2.1-7.9-3-6.9-8.1c0.9,3.8,3.8,5.2,6.5,6.1C158.1,23.2,160.3,25.4,158.4,30.2
		L158.4,30.2z"/>
	<path class="st0" d="M34.3,25.2L32.2,23c-3.3,8.3-5.6,10.7-11.7,10.7c-7.3,0-8.8-11.2-8.9-15.2c0-8.5,3.6-14.9,9.9-14.9
		c4.1,0,7,1.8,10,7.2c0.5,1.1,3,2.9,3,2.9L34,1.9l-2-1.4l-1.4,1.2C27.1,0.5,23.5-0.1,19.8,0C12.6,0,0.2,4.2,0,17.8
		c-0.1,7.5,5.4,20.8,22,19.5c3.3-0.3,6.2-1.6,9.4-2.1c1.1,0,3.6,1.6,3.6,1.6L34.3,25.2z M31.2,34c-1.6,0.1-6.4,2.4-10.8,2.3
		c-8,0-19.2-6-19.3-18.4C1,7.5,9.9,0.9,20.2,0.9c3.5-0.1,7,0.5,10.3,1.7l1.4-1.2l0.6,9.6l-0.7-1.2c-1.9-4.2-6-7-10.5-7.2
		C14.8,2.5,9.1,9,9.1,18.9c0,7.8,4.6,16.1,12.5,15.8c5.5-0.2,8.5-3.6,10.7-9.7c0.1,1.8,0.3,9.3,0.3,9.3C32.2,34.1,31.7,34,31.2,34z"
		/>
	<path class="st0" d="M30.6,32.1c0.6-0.4,1-1.1,1.1-1.8c0-0.4,0-0.8-0.1-1.3c-0.2-0.2-1,0.8-1.2,1.1C30,31,29.5,31.8,29,32.6
		c-0.3,0.3-0.7,0.5-1.2,0.6c-0.1,0.2-0.4,0.5-0.1,0.6c0.3-0.2,0.7-0.3,1.1-0.4c0.7,0,1.3,0,2-0.2c0.3-0.1,0.6-0.3,0.7-0.6
		c0-0.2,0.1-0.4,0.1-0.6C31.7,32.2,30.8,32.3,30.6,32.1z M30.6,30.5c0.2-0.3,0.4-0.6,0.7-0.9c0,0,0,0.5-0.1,0.8
		c0,0.3-0.1,0.5-0.3,0.7c-0.2,0.2-0.8,0.7-0.8,0.7C30.3,31.3,30.4,30.9,30.6,30.5z"/>
	<path class="st0" d="M29.6,3.9c0.4-0.1,1.8-0.2,1.8-0.2c-0.7-0.3-0.8-1.2-2.3-0.9c-0.7,0-1.4-0.1-2.1-0.3c-0.2,0.1-0.4,0.4-0.1,0.6
		c0.4,0.1,0.9,0.2,1.2,0.5c1,0.7,1.3,2,2,3c0.4,0.5,0.6,0.8,1.3,1C31.6,6,30.9,4.6,29.6,3.9z M30.1,5.7c-0.2-0.4-0.4-1.1-0.4-1.1
		c0.2,0.1,0.3,0.2,0.5,0.3c0.2,0.2,0.4,0.5,0.5,0.8s0.2,0.7,0.2,1C30.6,6.4,30.3,6,30.1,5.7z"/>
	<path class="st0" d="M11.7,31.8c-0.2-0.1-0.9-0.6-1.1-0.8c-0.1-0.1-0.2-0.2-0.3-0.3c0.2-0.7,0.2-1.5,0-2.2
		c-0.3-0.7-0.8-1.3-1.4-1.8c-0.1,0.8,0,1.6,0.2,2.3c0.1,0.2,0.2,0.5,0.4,0.7c-0.5-0.6-1-1.3-1.4-2c0.4-0.9,0.6-1.9,0.7-2.9
		c-0.1-1-0.4-1.9-0.8-2.7C7.3,23,7,24,7,25c0,0.5,0.2,1,0.3,1.5c-0.5-1-0.8-2-1.1-3l0.1,0.2c0.7-1.1,1.2-2.2,1.4-3.5
		c0-1.2-0.2-2.4-0.6-3.6c-0.8,0.9-1.3,2.1-1.6,3.3c0,0.3,0,0.6,0,0.9C5.3,19.9,5.3,19,5.3,18c0-0.2,0-0.3,0-0.5
		c0.8-0.6,1.5-1.3,2.1-2.2c0.4-1,0.6-2,0.7-3c-0.9,0.5-1.7,1.1-2.3,2c-0.1,0.2-0.2,0.4-0.2,0.6c0.1-0.8,0.3-1.6,0.6-2.4l0,0
		c0.9-0.4,1.6-1,2.3-1.7C9,10,9.3,9.1,9.5,8.1c-0.7,0.2-1.4,0.6-2,1.1c0.3-0.6,0.6-1.1,0.9-1.7C8.9,7.4,9.6,7,10.2,6.4
		c0.5-0.8,0.9-1.7,1.2-2.6c-1,0.2-1.9,0.6-2.5,1.3C8.4,5.7,8,6.5,7.9,7.3C7.5,7.9,7.1,8.4,6.8,9c0-0.7-0.1-1.5-0.3-2.2
		C5.9,7.5,5.4,8.4,5.1,9.3c-0.1,1,0.1,2,0.4,3l0,0c-0.2,0.6-0.3,1.2-0.5,1.9c0-0.1,0-0.3,0-0.4c-0.3-1-0.7-1.9-1.3-2.8
		c-0.4,1-0.6,2.1-0.5,3.2c0.3,1,0.8,2,1.5,2.8c0,0.3,0,0.6,0,0.9s0,0.3,0,0.4c-0.6-1-1.3-1.9-2.2-2.6c-0.2,1.3-0.2,2.7,0.2,3.9
		c0.6,1.1,1.5,2.1,2.5,2.9v-0.1C5.4,23.3,5.7,24.2,6,25c-0.1-0.1-0.2-0.2-0.2-0.3C5,24,4.1,23.5,3.2,23.2c0.2,1.1,0.6,2.1,1.2,3
		c0.8,0.7,1.7,1.2,2.7,1.4c0,0,0,0,0-0.1c0.3,0.6,0.6,1.2,1,1.7l0,0C7.4,29,6.7,28.9,6,29c0.4,0.6,0.9,1.2,1.5,1.6
		c0.6,0.3,1.3,0.4,2,0.4c0,0,0,0,0-0.1c0.4,0.5,0.9,0.9,1.5,1.2L11.7,31.8z M6.2,14.5C6.5,14,7,13.6,7.5,13.4
		C7.4,14,7.3,14.6,7,15.1s-0.8,1-1.2,1.3C5.8,15.8,5.9,15.1,6.2,14.5z M9.2,5.4c0.4-0.3,0.8-0.6,1.3-0.7c-0.1,0.5-0.4,1-0.6,1.4
		C9.5,6.5,9,6.8,8.5,6.9C8.6,6.4,8.8,5.9,9.2,5.4L9.2,5.4z M7.3,10c0.4-0.4,0.8-0.8,1.3-1C8.5,9.6,8.3,10.1,8,10.6
		c-0.3,0.4-0.8,0.7-1.2,0.9C6.9,11,7,10.5,7.3,10z M5.5,9.4c0.2-0.6,0.4-1.1,0.7-1.6C6.4,8.4,6.4,9,6.4,9.6c-0.2,0.5-0.4,1-0.7,1.4
		C5.5,10.5,5.5,10,5.5,9.4z M4.4,15.8c-0.4-0.5-0.7-1.1-0.8-1.6c-0.1-0.6,0-1.2,0.2-1.8c0.3,0.5,0.6,1,0.8,1.6
		C4.6,14.6,4.6,15.2,4.4,15.8z M4.5,21.1c-0.6-0.5-1.1-1-1.4-1.7c-0.2-0.8-0.3-1.6-0.3-2.4c0.6,0.5,1.1,1.1,1.5,1.8
		C4.5,19.5,4.6,20.3,4.5,21.1z M6,19.8c0.2-0.7,0.5-1.4,0.9-2c0.2,0.8,0.3,1.5,0.3,2.3c-0.2,0.7-0.4,1.4-0.8,2
		C6.1,21.4,6,20.6,6,19.8z M4.7,25.8C4.3,25.3,4,24.7,3.8,24c0.5,0.3,1.1,0.6,1.5,1c0.4,0.5,0.6,1,0.8,1.5
		C5.7,26.5,5.2,26.2,4.7,25.8L4.7,25.8z M7.4,24.8c0-0.6,0.2-1.2,0.4-1.8c0.3,0.6,0.4,1.2,0.4,1.9c0,0.6-0.1,1.1-0.4,1.6
		C7.6,26,7.5,25.4,7.4,24.8L7.4,24.8z M7.8,30.2c-0.4-0.1-0.8-0.5-1-0.9c0.4,0.1,0.7,0.2,1.1,0.3c0.3,0.2,0.6,0.4,0.8,0.7
		C8.4,30.4,8.1,30.3,7.8,30.2L7.8,30.2z M10,30.2c-0.2-0.4-0.4-0.8-0.6-1.2c-0.1-0.4-0.2-0.8-0.2-1.2c0.3,0.3,0.5,0.6,0.6,1
		C10,29.3,10,29.8,10,30.2L10,30.2z"/>
</g>
</svg>
