<svg xmlns="http://www.w3.org/2000/svg" xmlns:xlink="http://www.w3.org/1999/xlink" viewBox="0 0 436.58 54.57"><defs><style>.cls-1{filter:none;}.cls-2{fill:#fff;}</style><filter id="filter"><feOffset dx="5.47" dy="5.47" input="SourceAlpha"/><feGaussianBlur stdDeviation="3.91" result="blur"/><feFlood/><feComposite operator="in" in2="blur"/><feComposite in="SourceGraphic"/></filter></defs><g id="Layer_2" data-name="Layer 2"><g id="CS_Logo" data-name="CS Logo"><g class="cls-1"><path class="cls-2" d="M29.62,9.4a2.37,2.37,0,0,1-2,1.53c-.54,0-.7-.18-1.56-1.36A5.79,5.79,0,0,0,21.3,7.49C12.08,7.25,8.72,17.1,8.74,24.67c0,8,3.92,17.79,13.2,18,3.17.07,3.8-.05,6.84-2.57a2.64,2.64,0,0,1,1.31-.66,1.1,1.1,0,0,1,1,1.25A3.91,3.91,0,0,1,30.6,42c-.85,2-1.27,3-2.08,5s-3.26,3-7.51,3C5.87,49.71.21,36.8,0,24.7-.22,11.72,8.24-.37,22.06,0c5.79.15,10.07,1.68,10,3.54a5,5,0,0,1-.27,1.13c-.85,1.92-1.27,2.86-2.12,4.72"/><path class="cls-2" d="M32.53,43.88a6.77,6.77,0,0,0,.57-1.56,2,2,0,0,0-.19-.69c.05,0,1.85,1.45,1.77,2.3a5,5,0,0,1-.26.79c-1,2.15-1.43,3.23-2.36,5.43a4.42,4.42,0,0,1-1.8,2.23c-1.53,1-5.57,2-8.8,2-8.11-.09-15.26-5.07-16.8-9.14,3.26,3,9.11,7.08,16.29,7.14,4,0,6.05-.63,7.55-1.49a3.93,3.93,0,0,0,1.64-2.12c.94-1.95,1.42-2.92,2.39-4.85"/><path class="cls-2" d="M35.32,5.84A1.94,1.94,0,0,1,36,7.51a1.57,1.57,0,0,1-.14.7c-1.17,2.25-1.76,3.35-2.94,5.54C32.17,15.27,31.29,16,30.27,16a3.07,3.07,0,0,1-2.08-1.23c-2.72-2.93-3.78-3.31-6.11-3.37-5.2-.12-8.18,5.27-8.32,14.34a26.5,26.5,0,0,0,3.42,13.49c-.3.18-5.22-4.41-5.43-14.06S15.32,9.54,21.59,9.7a8.22,8.22,0,0,1,6.28,3c.59.62,1,.94,1.41.94.76,0,1.36-.52,2.1-1.74.85-1.53,1.28-2.31,2.13-3.87s.85-1.57.9-2.21a2,2,0,0,0-.12-1l1,1"/><path class="cls-2" d="M55.13,30.28c-1.45,0-1.61.23-2,2-1.11,5.51-1.69,8.27-3,13.78a5.69,5.69,0,0,0-.34,1.82c0,.87.29,1,1.14,2.79A3.22,3.22,0,0,1,51.32,52c0,1.27-1,1.81-3.18,1.8l-5.37,0c-2,0-2.78-.26-3.6-1.06l-1.31-1.43a7.33,7.33,0,0,0,3.07.5l5.57,0c1.57,0,2.45-.37,2.46-1.09,0-.47-.05-.56-1.13-1.84a1.5,1.5,0,0,1-.43-1,5.65,5.65,0,0,1,.26-1.42c1.42-6.12,2.08-9.17,3.33-15.29.46-2.21,1.12-2.76,3.14-2.75,1.35,0,1.87.25,1.89,1,0,.38,0,.57,0,.95h-.93"/><path class="cls-2" d="M69.45,43.65a21,21,0,0,0,.67,2,7.16,7.16,0,0,0,1.23,1.67,1.76,1.76,0,0,1,.54,1c0,.71-.81,1.1-2.42,1.09l-6.66-.06c-1.93,0-2.38-.25-2.39-1.13,0-.47,0-.55.94-1.5a1.08,1.08,0,0,0,.25-.71,9.49,9.49,0,0,0-.41-2.14c-1.38-5.44-2.12-8.16-3.53-13.59-1.2-4.46-1.28-4.54-5-4.56-2.76,0-3.58.6-4,3.06-1.24,6-1.89,9-3.26,15-.07.28-.1.43-.17.71a3.68,3.68,0,0,0-.26.95,3.33,3.33,0,0,0,.77,1.67,1.88,1.88,0,0,1,.52,1c0,.79-.71,1-2.77,1l-6,0c-1.88,0-2.42-.26-2.41-1a2.35,2.35,0,0,1,.57-1.19c.41-.52.86-1,1.06-1.34s.33-.87.84-3c2.74-12.06,5.33-24.16,7.94-36.26a9.6,9.6,0,0,0,.24-1.43,3,3,0,0,0-.38-1.35A3.94,3.94,0,0,1,44.79,2c0-.87.65-1.18,2.23-1.17L57.81,1c1.59,0,2.3.33,2.3,1a4,4,0,0,1-.63,1.58,2,2,0,0,0-.31,1,7.77,7.77,0,0,0,.17,1.11l.17.87C62.37,19,66.09,31.26,69.45,43.65M50.69,17.32l-.15.55a1.71,1.71,0,0,0-.07.64c0,.79.67,1.11,2.24,1.13s2.12-.3,2.1-1.1a7.06,7.06,0,0,0-.29-1.35c-.4-1.65-.6-2.48-1-4.13-.35-1.35-.43-1.51-1-1.52-.41,0-.64.32-.8,1.11l-1.05,4.67"/><path class="cls-2" d="M63.15,4.65c.41.48.63.72,1.05,1.2a1.1,1.1,0,0,1,.16.47,3.43,3.43,0,0,1-.29,1.11,3.38,3.38,0,0,0-.29,1.11c0,.4,0,.48.77,3.5,3,10.92,6.16,21.77,9.2,32.67a13.51,13.51,0,0,0,2.53,5.58A3.64,3.64,0,0,1,77,52.2c0,1.11-1.1,1.81-2.74,1.8L68.4,54a6.54,6.54,0,0,1-4.61-2.49,15.1,15.1,0,0,0,3.14.5l5.52,0c1.42,0,2.3-.54,2.29-1.33,0-.32,0-.34-1.35-2.07a3.57,3.57,0,0,1-.9-2.15C69.12,34,65.13,21.79,62,9.32A8,8,0,0,1,61.77,8a3.29,3.29,0,0,1,.52-1.9c.55-.83.62-1,.62-1.26a1.1,1.1,0,0,0-.17-.64l.41.48"/><path class="cls-2" d="M105.34,5.62a3.37,3.37,0,0,1-.63,1.59,13.72,13.72,0,0,0-1.9,3.25c-1.19,3.18-2.38,6.35-3.49,9.52-.62,1.87-2.42,7-4.1,11.72v13c0,3.61.31,3.75,1.38,5.2a4.45,4.45,0,0,1,.81,2.27c0,.87-.79,1.43-2.14,1.43l-6.55,0c-2,0-2.54-.32-4.21-2.46.88.4,1.19.48,3.18.48h5.52c1.26,0,1.9-.4,1.9-1.19,0-.32-.16-.45-.56-1-1-1.14-1.15-1.08-1.15-2.33V30.62c3-6.74,6.13-15.64,8.06-21.43a8.48,8.48,0,0,1,1.66-3.33c.8-1,.88-1.11.88-1.5a3.26,3.26,0,0,0-.16-.56c1.27,1,1.5,1.35,1.5,1.82"/><path class="cls-2" d="M92.41,48.06a1.33,1.33,0,0,0-.39-1c-.24-.24-1.08-.72-1.16-.88-.24-.31-.24-.71-.32-1.42V29.66a181.19,181.19,0,0,0,8.7-22.93,6.17,6.17,0,0,1,1-2.61c1.35-1.67,1.35-1.67,1.35-2.07,0-.79-.64-1.1-2.07-1.1h-6.9c-1.66,0-2.22.31-2.22,1.1a2.86,2.86,0,0,0,.72,1.43,2.78,2.78,0,0,1,.63,1.43,15,15,0,0,1-1,4c-.4,1.11-.24.55-.64,1.66S89.4,12.76,89.08,14c-.71,2.7-1.58,4.13-2.46,4.13-.71,0-.87-.24-2.77-3.89-3.41-6.58-4.44-8.81-4.44-10a2.11,2.11,0,0,1,.47-1.19A3.39,3.39,0,0,0,80.36,2c0-.72-.64-1-2.14-1h-7C69.41,1,69,1.1,69,1.82a1.94,1.94,0,0,0,.63,1.27l.63.79c.4.63.64,1,.88,1.35A8.2,8.2,0,0,1,72,7.05C77.19,18,81.16,27.42,83,29.4V44.81c-.08.87-.16,1.27-.48,1.58-1,1.11-1,1.11-1,1.59,0,.79.48,1.11,1.51,1.11h7.9c1,0,1.5-.32,1.5-1"/><path class="cls-2" d="M86.86,15c.32,0,.72-.71.88-1.66A22.82,22.82,0,0,1,85.2,7.77c-.72-2.54-.8-2.7-2.54-4l-.08.4c-.48,1-.48,1-.48,1.27,0,1.34,4.05,9.59,4.76,9.59"/><path class="cls-2" d="M143.91,42.51c0,3.72,0,3.72,1.11,4.84a1.44,1.44,0,0,1,.39.95c0,.71-.47,1-1.5,1h-7.22c-1,0-1.51-.32-1.51-1,0-.56,0-.56,1-1.67.32-.31.4-.71.48-1.58V18.71c0-2.62-.24-3.49-.87-3.49-2,0-5.32,8.17-5.72,13.8-.15,1.91-.63,2.3-2.69,2.3-2.38,0-3.1-.15-3.49-.63-.32-.32-.32-.32-.72-3.33-.79-5.71-3.72-12.14-5.47-12.14-.55,0-.79.79-.79,2.62V45.05a4.73,4.73,0,0,0,.24,1.43,8.46,8.46,0,0,0,.79.87,1.44,1.44,0,0,1,.39.95c0,.71-.47,1-1.42,1h-7.38c-1,0-1.51-.32-1.51-1,0-.56,0-.56,1-1.67.31-.31.39-.71.47-1.58V5.23a4.67,4.67,0,0,0-.24-1.43l-.39-.4-.4-.47a1.47,1.47,0,0,1-.4-1c0-.72.48-1,1.43-1h5a4.26,4.26,0,0,1,3.88,1.66,48.42,48.42,0,0,1,6.75,10.31c1.19,2.62,1.35,2.86,1.82,2.86.32,0,.64-.32.95-1A47.74,47.74,0,0,1,135,3.25c1.67-2,2.3-2.3,5.08-2.3h3.81c1.11,0,1.58.31,1.58,1,0,.55,0,.55-1.11,1.66-.47.56-.47.56-.47,4.13Z"/><path class="cls-2" d="M115.27,53.85c-2.06,0-2.54-.32-4.2-2.46.87.48,1.19.48,3.09.48H119c1.27,0,1.9-.4,1.9-1.11,0-.48-.07-.72-.87-1.67a1.91,1.91,0,0,1-.48-1V22c0-.23.09-.39.24-.39.32,0,1.19,2.38,1.51,4.2a11.34,11.34,0,0,1,.08,2.3v16.9c0,3.57,0,3.57,1.11,5.87a4.07,4.07,0,0,1,.48,1.42c0,.95-.8,1.51-2.22,1.51Z"/><path class="cls-2" d="M127.88,11.49c-.08.16-.31.4-.39.4s-.16-.16-.56-.87A42.67,42.67,0,0,0,122.49,4a20.58,20.58,0,0,1,5.87,6.35Z"/><path class="cls-2" d="M135,27.36c-.39,1.58-.87,4.12-1.19,6.5-.16,1.51-.63,1.83-2.77,1.83s-3.34-.56-4.29-2.06a12.47,12.47,0,0,0,2.46.23,4.14,4.14,0,0,0,2.7-.63c.32-.4.32-.4.71-4.36.32-3.34,1.43-7.14,2.07-7.14.15,0,.31.23.31.55Z"/><path class="cls-2" d="M142.24,53.85c-2.06,0-2.7-.32-4.36-2.46a6.38,6.38,0,0,0,3.25.48h5c1.35,0,2-.4,2-1.11,0-.48-.16-.72-1-1.67a2.14,2.14,0,0,1-.48-1V7.77c0-.8,0-.88,1-2.15a1.41,1.41,0,0,0,.4-.87,1.12,1.12,0,0,0-.08-.47c1.59,1.34,2,1.74,2,2.06a2.64,2.64,0,0,1-.64,1.27c-.79.87-.79.87-.79,3.09V45.05c0,3.57,0,3.57,1.11,5.87a4,4,0,0,1,.47,1.42c0,.95-.79,1.51-2.14,1.51Z"/><path class="cls-2" d="M174,7.77V5.23a4.2,4.2,0,0,0-.32-1.43,7.53,7.53,0,0,0-.79-.87,1.47,1.47,0,0,1-.4-1c0-.72.48-1,1.51-1h7.22c1,0,1.43.31,1.43,1,0,.55,0,.55-1,1.66-.4.56-.4.56-.4,4.13V36c0,2.3,0,2.3.95,3.89a2.35,2.35,0,0,1,.4,1.19,3.8,3.8,0,0,1-.72,1.91c-2.45,4.44-7.53,7.21-13.24,7.21-4.68,0-9.05-2.06-11-5.15s-2.3-4.84-2.3-13.17V5.23A4.67,4.67,0,0,0,155,3.8l-.39-.4-.4-.47a1.47,1.47,0,0,1-.4-1c0-.72.4-1,1.43-1h7.46c1,0,1.43.31,1.43,1,0,.55,0,.55-1,1.66-.4.56-.4.56-.4,4.13V34.18c0,3.73.08,4.44.95,5.87a5.16,5.16,0,0,0,4.6,2.77A9,9,0,0,0,174,40.6Z"/><path class="cls-2" d="M185.82,38.38c0,2.94,0,2.94.48,4.36a5.7,5.7,0,0,1,.15,1,5.27,5.27,0,0,1-1.11,2.62,19.07,19.07,0,0,1-15.15,8.25,14.29,14.29,0,0,1-11.81-5.72,17.71,17.71,0,0,0,10.86,3.89,17.24,17.24,0,0,0,12.93-6c1.59-1.74,2.46-3.25,2.46-4,0-.15-.16-.55-.32-1.18A5.24,5.24,0,0,1,184,39.1V8c0-.88,0-1,1-2.23a1.61,1.61,0,0,0,.39-1.11V4.36c1.83,1.66,1.83,1.66,1.83,2a2.06,2.06,0,0,1-.64,1.27c-.79,1-.79,1-.79,3Z"/><path class="cls-2" d="M167.18,40.84c-1.59-.39-1.82-.71-1.82-2.46V8c0-.87,0-1,1-2.22a1.61,1.61,0,0,0,.39-1.11V4.35c1.43,1.35,1.75,1.67,1.75,2a2.64,2.64,0,0,1-.64,1.27c-.71.87-.71.87-.71,3Z"/><path class="cls-2" d="M212.32,8.4a1.61,1.61,0,0,1-1.51,1.43c-.48,0-.8-.24-1.19-.8-1-1.58-2.3-2.14-4.92-2.14-3.25,0-5.55,1.67-5.55,4.05,0,2.77,1.35,4.28,7.53,8.64s9.2,9.6,9.2,15.63c0,8.49-6.18,15-14.19,15-5.72,0-12.06-2.46-12.06-4.6a5.41,5.41,0,0,1,.24-1.35L191,39.57c.31-1.19.79-1.74,1.51-1.74s1.18.4,1.5,1.43c.8,2.22,3.25,3.57,6.42,3.57A7.53,7.53,0,0,0,208,35a10.25,10.25,0,0,0-3.09-7.21,55.94,55.94,0,0,0-6.75-5.32C193,18.71,191,15.62,191,11.26c0-6.51,5.31-11,13.09-11,5.47,0,9.43,1.35,9.43,3.25l-.07.8Z"/><path class="cls-2" d="M220.4,35.85a19,19,0,0,1-18.71,18.72,16.22,16.22,0,0,1-6.75-1.35,10.53,10.53,0,0,1-3.25-3,20.33,20.33,0,0,0,9.76,2.54,17.3,17.3,0,0,0,17.29-17.61A18.15,18.15,0,0,0,216,25.38c-.31-.48-.47-.72-1.58-2.23a16.28,16.28,0,0,1,6,12.7"/><path class="cls-2" d="M216.52,5.62a1.5,1.5,0,0,1,.55,1.27,1.63,1.63,0,0,1-.16.72l-1.58,5.87c-.4,1.5-1.11,2.3-2.06,2.3-.48,0-1-.4-1.83-1.35-1.67-2.06-3.09-2.86-5.07-2.86s-3.34,1-3.34,2.54a3.2,3.2,0,0,0,.08.79,2.9,2.9,0,0,1-1.58-2.38c0-1.5,1.82-2.69,4.2-2.69,2.93,0,4.13.55,6.11,2.93a1.35,1.35,0,0,0,1,.56c.56,0,.71-.24,1.19-1.67l1.27-4.76a6,6,0,0,0,.16-1.19,2,2,0,0,0-.16-1Z"/><path class="cls-2" d="M239.57,26.56c0,1.59-.55,2.07-2.3,2.07H225.56c-1.67,0-2.14-.4-2.14-2.07V23.79a2.13,2.13,0,0,1,.79-1.83c.4-.23.64-.23,2.38-.23h10.28c2.07,0,2.7.47,2.7,2.06Z"/><path class="cls-2" d="M242.59,25.38c1.18,1,1.42,1.42,1.42,2.45v2.62c0,2.14-.79,2.7-3.73,2.7h-9.09c-2.14,0-2.53-.16-3.49-1.27l-1.19-1.43a7.94,7.94,0,0,0,3.18.72h9.8c2,0,2.62-.64,2.62-2.62V26.41A3.72,3.72,0,0,0,242,24.9Z"/><path class="cls-2" d="M268.62,8.4a1.6,1.6,0,0,1-1.51,1.43c-.47,0-.79-.24-1.18-.8-1-1.58-2.31-2.14-4.92-2.14-3.26,0-5.55,1.67-5.55,4.05,0,2.77,1.34,4.28,7.53,8.64s9.2,9.6,9.2,15.63c0,8.49-6.19,15-14.2,15-5.71,0-12.06-2.46-12.06-4.6a5.41,5.41,0,0,1,.24-1.35l1.11-4.68c.32-1.19.8-1.74,1.51-1.74s1.19.4,1.51,1.43c.79,2.22,3.25,3.57,6.42,3.57A7.53,7.53,0,0,0,264.34,35a10.22,10.22,0,0,0-3.1-7.21,55.5,55.5,0,0,0-6.74-5.32c-5.23-3.73-7.22-6.82-7.22-11.18,0-6.51,5.32-11,13.09-11,5.48,0,9.44,1.35,9.44,3.25l-.08.8Z"/><path class="cls-2" d="M276.71,35.85A19,19,0,0,1,258,54.57a16.17,16.17,0,0,1-6.74-1.35,10.42,10.42,0,0,1-3.25-3,20.26,20.26,0,0,0,9.75,2.54,17.31,17.31,0,0,0,17.3-17.61,18.15,18.15,0,0,0-2.78-9.75c-.32-.48-.47-.72-1.59-2.23a16.26,16.26,0,0,1,6,12.7"/><path class="cls-2" d="M272.83,5.62a1.5,1.5,0,0,1,.55,1.27,1.63,1.63,0,0,1-.16.72l-1.58,5.87c-.4,1.5-1.11,2.3-2.07,2.3-.47,0-1-.4-1.82-1.35-1.67-2.06-3.09-2.86-5.08-2.86s-3.33,1-3.33,2.54a3.2,3.2,0,0,0,.08.79,2.91,2.91,0,0,1-1.59-2.38c0-1.5,1.83-2.69,4.21-2.69,2.93,0,4.12.55,6.11,2.93a1.35,1.35,0,0,0,1,.56c.55,0,.71-.24,1.19-1.67l1.27-4.76a6,6,0,0,0,.16-1.19,2,2,0,0,0-.16-1Z"/><path class="cls-2" d="M299.24,7.77V5.23a4.2,4.2,0,0,0-.32-1.43,8.56,8.56,0,0,0-.79-.87,1.46,1.46,0,0,1-.39-1c0-.72.47-1,1.5-1h7.22c1,0,1.43.31,1.43,1,0,.55,0,.55-1,1.66-.39.56-.39.56-.39,4.13V36c0,2.3,0,2.3,1,3.89a2.35,2.35,0,0,1,.4,1.19,3.8,3.8,0,0,1-.72,1.91c-2.46,4.44-7.53,7.21-13.24,7.21-4.69,0-9.05-2.06-11-5.15s-2.3-4.84-2.3-13.17V5.23a4.67,4.67,0,0,0-.24-1.43l-.4-.4-.39-.47a1.47,1.47,0,0,1-.4-1c0-.72.4-1,1.43-1H288c1,0,1.42.31,1.42,1,0,.55,0,.55-1,1.66-.39.56-.39.56-.39,4.13V34.18c0,3.73.08,4.44.95,5.87a5.16,5.16,0,0,0,4.6,2.77,9,9,0,0,0,5.71-2.22Z"/><path class="cls-2" d="M311.06,38.38c0,2.94,0,2.94.48,4.36a7,7,0,0,1,.15,1,5.27,5.27,0,0,1-1.11,2.62,19.07,19.07,0,0,1-15.15,8.25,14.29,14.29,0,0,1-11.81-5.72,17.67,17.67,0,0,0,10.86,3.89,17.24,17.24,0,0,0,12.93-6c1.59-1.74,2.46-3.25,2.46-4,0-.15-.16-.55-.32-1.18a5.24,5.24,0,0,1-.32-2.46V8c0-.88,0-1,1-2.23a1.58,1.58,0,0,0,.4-1.11V4.36c1.83,1.66,1.83,1.66,1.83,2a2.06,2.06,0,0,1-.64,1.27c-.79,1-.79,1-.79,3Z"/><path class="cls-2" d="M292.42,40.84c-1.59-.39-1.82-.71-1.82-2.46V8c0-.87,0-1,1-2.22A1.61,1.61,0,0,0,292,4.67V4.35c1.43,1.35,1.75,1.67,1.75,2a2.64,2.64,0,0,1-.64,1.27c-.71.87-.71.87-.71,3Z"/><path class="cls-2" d="M324.81,42.51v2.54a2.92,2.92,0,0,0,.32,1.43,9,9,0,0,0,.79.87,1.3,1.3,0,0,1,.4.95c0,.71-.47,1-1.51,1H317.6c-1,0-1.51-.32-1.51-1.11,0-.48,0-.48,1-1.59.32-.31.4-.71.48-1.58V5.23a4.67,4.67,0,0,0-.24-1.43l-.4-.4-.4-.47a1.51,1.51,0,0,1-.39-1c0-.72.39-1,1.43-1h7.21c1.11,0,1.59.31,1.59,1,0,.55,0,.55-1.11,1.66-.48.56-.48.64-.48,4.13Z"/><path class="cls-2" d="M323.31,53.85c-2,0-2.54-.32-4.21-2.46.88.4,1.19.48,3.18.48h4.83c1.27,0,1.91-.4,1.91-1.19a2.14,2.14,0,0,0-.56-1.19c-.55-.64-.63-.79-.71-1.19-.08-.08-.08-.24-.08-.63V7.77c0-.8,0-.88.95-2.15a1.41,1.41,0,0,0,.4-.87,1.12,1.12,0,0,0-.08-.47l.55.47.8.71c.47.4.63.64.63.88s-.16.63-.63,1.27c-.8.87-.8.87-.8,2.93V45c0,3.65,0,3.65,1.12,6a4,4,0,0,1,.47,1.5c0,.87-.79,1.43-2.14,1.43Z"/><path class="cls-2" d="M356.14,8.4a1.59,1.59,0,0,1-1.5,1.43c-.48,0-.79-.24-1.19-.8-1-1.58-2.3-2.14-4.92-2.14-3.25,0-5.55,1.67-5.55,4.05,0,2.77,1.35,4.28,7.53,8.64s9.2,9.6,9.2,15.63c0,8.49-6.18,15-14.19,15-5.71,0-12.06-2.46-12.06-4.6a5.41,5.41,0,0,1,.24-1.35l1.11-4.68c.31-1.19.79-1.74,1.5-1.74s1.19.4,1.51,1.43c.79,2.22,3.25,3.57,6.43,3.57A7.53,7.53,0,0,0,351.86,35a10.25,10.25,0,0,0-3.09-7.21A56.38,56.38,0,0,0,342,22.44c-5.24-3.73-7.22-6.82-7.22-11.18,0-6.51,5.31-11,13.08-11,5.48,0,9.44,1.35,9.44,3.25l-.08.8Z"/><path class="cls-2" d="M364.24,35.85a19,19,0,0,1-18.72,18.72,16.22,16.22,0,0,1-6.75-1.35,10.53,10.53,0,0,1-3.25-3,20.3,20.3,0,0,0,9.76,2.54,17.3,17.3,0,0,0,17.29-17.61,18.15,18.15,0,0,0-2.78-9.75c-.31-.48-.47-.72-1.58-2.23a16.29,16.29,0,0,1,6,12.7"/><path class="cls-2" d="M360.35,5.62a1.48,1.48,0,0,1,.55,1.27,1.73,1.73,0,0,1-.15.72l-1.59,5.87c-.4,1.5-1.11,2.3-2.06,2.3-.48,0-1-.4-1.83-1.35-1.66-2.06-3.09-2.86-5.08-2.86s-3.33,1-3.33,2.54a3.2,3.2,0,0,0,.08.79,2.9,2.9,0,0,1-1.58-2.38c0-1.5,1.82-2.69,4.2-2.69,2.94,0,4.13.55,6.11,2.93a1.35,1.35,0,0,0,1,.56c.55,0,.71-.24,1.19-1.67l1.27-4.76a6,6,0,0,0,.16-1.19,2,2,0,0,0-.16-1Z"/><path class="cls-2" d="M386.76,7.77V5.23a4.52,4.52,0,0,0-.31-1.43,8.6,8.6,0,0,0-.8-.87,1.46,1.46,0,0,1-.39-1c0-.72.47-1,1.5-1H394c1,0,1.43.31,1.43,1,0,.55,0,.55-1,1.66-.4.56-.4.56-.4,4.13V36c0,2.3,0,2.3.95,3.89a2.35,2.35,0,0,1,.4,1.19,3.8,3.8,0,0,1-.72,1.91c-2.45,4.44-7.53,7.21-13.24,7.21-4.68,0-9-2.06-11-5.15S368,40.21,368,31.88V5.23a4.44,4.44,0,0,0-.23-1.43l-.4-.4-.4-.47a1.46,1.46,0,0,1-.39-1c0-.72.39-1,1.42-1h7.46c1,0,1.43.31,1.43,1,0,.55,0,.55-1,1.66-.39.56-.39.56-.39,4.13V34.18c0,3.73.08,4.44.95,5.87a5.16,5.16,0,0,0,4.6,2.77,9,9,0,0,0,5.71-2.22Z"/><path class="cls-2" d="M398.58,38.38c0,2.94,0,2.94.48,4.36a5.91,5.91,0,0,1,.16,1,5.36,5.36,0,0,1-1.11,2.62A19.09,19.09,0,0,1,383,54.57a14.29,14.29,0,0,1-11.82-5.72A17.71,17.71,0,0,0,382,52.74a17.24,17.24,0,0,0,12.93-6c1.59-1.74,2.46-3.25,2.46-4,0-.15-.16-.55-.32-1.18a5.39,5.39,0,0,1-.31-2.46V8c0-.88,0-1,1-2.23a1.58,1.58,0,0,0,.4-1.11V4.36C400,6,400,6,400,6.34a2.06,2.06,0,0,1-.64,1.27c-.79,1-.79,1-.79,3Z"/><path class="cls-2" d="M379.94,40.84c-1.58-.39-1.82-.71-1.82-2.46V8c0-.87,0-1,1-2.22a1.56,1.56,0,0,0,.39-1.11V4.35c1.43,1.35,1.75,1.67,1.75,2a2.64,2.64,0,0,1-.64,1.27c-.71.87-.71.87-.71,3Z"/><path class="cls-2" d="M413.81,16.33c-.63-.79-.79-.95-1.19-.95-.55,0-.71.4-.71,1.91V45.05a4.59,4.59,0,0,0,.24,1.42l.79.88a1.45,1.45,0,0,1,.4.95c0,.71-.48,1-1.43,1h-7.22c-1,0-1.51-.32-1.51-1,0-.56,0-.56,1-1.67.31-.31.39-.71.47-1.58V5.23a4.67,4.67,0,0,0-.24-1.43,8,8,0,0,1-.79-.87,1.47,1.47,0,0,1-.4-1c0-.64.48-1,1.43-1h4.92c2.06,0,2.3.15,3.73,2l8.17,10.71a2,2,0,0,0,1.27,1c.39,0,.63-.56.63-1.51V5.23a4.67,4.67,0,0,0-.24-1.43l-.79-.87a1.47,1.47,0,0,1-.4-1c0-.72.48-1,1.43-1h7.3c1,0,1.43.31,1.43,1,0,.55,0,.55-1,1.66-.39.56-.39.56-.39,4.13V45.05a4.59,4.59,0,0,0,.24,1.42l.79.88a1.45,1.45,0,0,1,.4.95c0,.71-.48,1-1.43,1h-7.3c-1,0-1.51-.32-1.51-1,0-.56,0-.56,1-1.67.32-.31.4-.71.48-1.58V32.12c0-2.94-.4-4.13-2.38-6.66Z"/><path class="cls-2" d="M416.59,45.05c0,3.57,0,3.57,1.11,5.87a4.84,4.84,0,0,1,.4,1.43c0,.94-.8,1.5-2.15,1.5h-5.47c-2,0-2.54-.32-4.12-2.46.87.48,1,.48,3.09.48h4.76c1.35,0,1.9-.32,1.9-1.11,0-.48-.07-.64-.87-1.67a1.67,1.67,0,0,1-.47-1V21c0-.39.07-.55.23-.55s.4.16.8.71l.79,1Z"/><path class="cls-2" d="M429,53.85c-2,0-2.53-.32-4.12-2.46.87.48,1,.48,3.09.48h4.76c1.35,0,1.91-.32,1.91-1.11,0-.48-.08-.64-.88-1.67a1.81,1.81,0,0,1-.47-1V7.92c0-.79,0-.87.95-2.22a1.84,1.84,0,0,0,.4-1,1.33,1.33,0,0,0-.08-.47c1.82,1.58,2,1.74,2,2.06a2.64,2.64,0,0,1-.64,1.27c-.79.87-.79.87-.79,3.17V45.12c0,3.5,0,3.5,1.11,5.8a3.46,3.46,0,0,1,.4,1.5c0,.87-.72,1.43-2.06,1.43Z"/></g></g></g></svg>